<svg width="23" height="24" viewBox="0 0 23 24" fill="none" xmlns="http://www.w3.org/2000/svg">
<path d="M12.3838 5.96293C11.3571 5.96293 10.5248 6.63315 10.5248 7.45989V10.0958L8.59039 1.85528C8.54731 1.67177 8.48946 1.49119 8.38533 1.33444C8.13206 0.953182 7.52636 0.28206 6.49147 0.490408C5.16722 0.757008 5.17904 2.04342 5.18699 2.21997C5.18762 2.23379 5.18875 2.24617 5.19002 2.25995C5.23544 2.75149 5.33159 4.30469 5.75972 6.62838C6.19379 8.98436 6.92298 11.238 6.92298 12.9529L4.74748 10.7952C4.01739 10.0711 3.07114 9.40307 2.08643 9.68936C1.82915 9.76415 1.57852 9.89071 1.36972 10.0958C1.06632 10.3939 0.917993 10.7794 0.851287 11.1458C0.711128 11.9157 1.0836 12.6564 1.52201 13.3028C2.42486 14.634 4.02874 17.0058 4.91748 18.3606C5.83906 19.7655 6.98602 20.6717 7.55979 21.0711C7.77932 21.2239 7.92221 21.4726 7.92221 21.7413V23.178C7.92221 23.3847 8.08867 23.5522 8.29401 23.5522H13.4992C13.4992 23.5522 13.8207 21.3068 14.9566 21.3068C16.0925 21.3068 16.4737 23.5522 16.4737 23.5522H18.7045C18.9098 23.5522 19.0763 23.3847 19.0763 23.178V20.4279C19.0763 20.0234 19.1849 19.6263 19.3905 19.2788L20.6517 17.1478C21.1329 16.3347 21.4157 15.4183 21.477 14.4739L21.6165 12.325L21.6789 10.5189L21.6314 9.39321C21.6215 9.1596 21.595 8.92412 21.4942 8.71348C21.322 8.35375 20.9404 7.82735 20.1815 7.82735C19.7438 7.82735 19.4263 7.9501 19.2009 8.10237C18.7793 8.38718 18.6763 8.93429 18.6091 9.44084L18.5221 10.0958L18.3355 8.32607C18.3006 7.99507 18.2299 7.66143 18.0261 7.39936C17.7582 7.05507 17.2598 6.62838 16.4346 6.62838C15.7388 6.62838 15.2451 6.93167 14.9261 7.23317C14.5646 7.57494 14.4517 8.08412 14.4232 8.58255L14.3366 10.0958L14.2428 7.45989C14.2428 6.63315 13.4105 5.96293 12.3838 5.96293Z" fill="white"/>
<path fill-rule="evenodd" clip-rule="evenodd" d="M8.75616 1.08352C8.46867 0.650739 7.70898 -0.213995 6.40391 0.0487451C5.57765 0.21509 5.14079 0.717817 4.92993 1.20976C4.72943 1.67756 4.73598 2.12235 4.74124 2.23903L4.76497 2.52544C4.81937 3.18084 4.94106 4.64694 5.32098 6.70897C5.47267 7.53227 5.66155 8.35025 5.84062 9.12572C5.91987 9.46891 5.99719 9.80378 6.06852 10.1271C6.19896 10.7184 6.30976 11.2725 6.38287 11.7855L5.06057 10.474C4.67999 10.0966 4.22112 9.71079 3.70823 9.45858C3.19014 9.20381 2.59129 9.07381 1.96256 9.25661C1.65097 9.3472 1.33043 9.50555 1.05804 9.77314C0.667172 10.1571 0.489401 10.6405 0.412377 11.0636C0.237706 12.023 0.707443 12.897 1.15347 13.5547C2.05675 14.8866 3.6586 17.2553 4.54509 18.6068C5.50935 20.0767 6.70568 21.0213 7.30594 21.4391C7.41781 21.517 7.47599 21.6338 7.47599 21.74V23.1767C7.47599 23.6314 7.84221 24 8.29396 24H13.4992C13.721 24 13.9091 23.8359 13.9408 23.615L13.9412 23.6121L13.9436 23.5971C13.9458 23.5833 13.9493 23.5619 13.9543 23.5342C13.9643 23.4786 13.9799 23.3978 14.0021 23.3003C14.0468 23.1036 14.1164 22.8468 14.2163 22.5945C14.3181 22.3376 14.4408 22.1124 14.5799 21.9582C14.7142 21.8093 14.8358 21.7546 14.9565 21.7546C15.0787 21.7546 15.2055 21.8108 15.3468 21.963C15.4921 22.1194 15.6217 22.3466 15.7305 22.604C15.8374 22.857 15.914 23.1144 15.964 23.3113C15.9889 23.409 16.0067 23.4899 16.0181 23.5456C16.0238 23.5734 16.028 23.5947 16.0306 23.6086L16.0333 23.6236L16.0338 23.6267C16.0705 23.8424 16.2563 24 16.4736 24H18.7044C19.1562 24 19.5224 23.6314 19.5224 23.1767V20.4266C19.5224 20.103 19.6092 19.7854 19.7738 19.5073L21.0349 17.3763C21.5522 16.5022 21.8563 15.5171 21.9222 14.5019L22.0617 12.353L22.0624 12.3393L22.1247 10.5332C22.1251 10.5217 22.1251 10.5101 22.1246 10.4986L22.0771 9.37285C22.0667 9.12632 22.0382 8.81404 21.8961 8.51725C21.6934 8.09391 21.1938 7.37697 20.1815 7.37697C19.6552 7.37697 19.2512 7.52623 18.9522 7.72819C18.8669 7.78583 18.7916 7.85004 18.725 7.91889C18.6698 7.65302 18.5707 7.36977 18.3773 7.12118C18.0528 6.70413 17.4366 6.17799 16.4345 6.17799C15.5974 6.17799 14.9994 6.54643 14.6206 6.90451L14.6033 6.9211C14.3188 6.06072 13.367 5.51255 12.3838 5.51255C11.4477 5.51255 10.5402 6.0094 10.2097 6.79949L9.02454 1.75072C8.9771 1.54866 8.90437 1.30662 8.75616 1.08352ZM13.1318 23.1018L13.1322 23.0998C13.1833 22.8755 13.265 22.571 13.3875 22.2619C13.5081 21.9574 13.6786 21.6212 13.9193 21.3545C14.1647 21.0823 14.5092 20.8564 14.9565 20.8564C15.4023 20.8564 15.7491 21.0809 15.9987 21.3497C16.2444 21.6143 16.4231 21.9484 16.5516 22.2524C16.6819 22.5607 16.7716 22.8647 16.8285 23.0888L16.8318 23.1018H18.6301V20.4266C18.6301 19.9412 18.7604 19.4647 19.0072 19.0477L20.2683 16.9167C20.7134 16.1645 20.975 15.3169 21.0318 14.4433L21.1708 12.3013L21.2323 10.5194L21.1856 9.41098C21.1762 9.19029 21.1518 9.03162 21.0922 8.90711C20.9505 8.61099 20.6869 8.27514 20.1815 8.27514C19.8322 8.27514 19.6013 8.37138 19.4495 8.47396C19.3405 8.54762 19.2564 8.66413 19.1904 8.84335C19.1222 9.02819 19.0845 9.24815 19.0512 9.49902L18.9643 10.154C18.9344 10.3794 18.7418 10.5467 18.516 10.5436C18.2901 10.5405 18.1022 10.368 18.0784 10.1419L17.8917 8.37217C17.8588 8.06016 17.798 7.83346 17.6747 7.67494C17.4635 7.40341 17.0828 7.07617 16.4345 7.07617C15.8802 7.07617 15.4906 7.31432 15.2315 7.55924C14.9992 7.77883 14.8954 8.13876 14.8686 8.60707L14.782 10.1203C14.7683 10.3598 14.57 10.5462 14.3317 10.5436C14.0934 10.541 13.8992 10.3503 13.8907 10.1106L13.7969 7.47467L13.7967 7.46568L13.7966 7.4586C13.7966 6.96821 13.2621 6.41072 12.3838 6.41072C11.5054 6.41072 10.9709 6.96821 10.9709 7.4586V10.0945C10.9709 10.3224 10.8013 10.5142 10.5764 10.5406C10.3515 10.567 10.1426 10.4196 10.0906 10.1978L8.15612 1.95726C8.1174 1.79229 8.07444 1.67317 8.01439 1.58276C7.79534 1.25303 7.34364 0.775521 6.57892 0.929477C6.08093 1.02973 5.86158 1.30351 5.74927 1.56555C5.6266 1.85175 5.62994 2.13844 5.63264 2.19832L5.63421 2.21706C5.63989 2.2785 5.64631 2.35572 5.65399 2.44821C5.70854 3.10447 5.827 4.52968 6.19834 6.54519C6.3463 7.34825 6.5274 8.13234 6.70432 8.89832C6.72695 8.99628 6.74954 9.09412 6.77195 9.19149C6.82924 9.44037 6.88556 9.68732 6.93963 9.93238C7.17636 11.0055 7.36909 12.0402 7.36909 12.9516C7.36909 13.1326 7.2611 13.296 7.09519 13.3659C6.92927 13.4357 6.73789 13.3985 6.60978 13.2715L4.43428 11.1138C4.08478 10.7672 3.70547 10.4569 3.31653 10.2656C2.9328 10.0769 2.56616 10.016 2.21018 10.1195C2.00723 10.1785 1.8265 10.2733 1.6813 10.4159C1.46537 10.628 1.34648 10.9157 1.29009 11.2255C1.18444 11.8058 1.45965 12.4131 1.89045 13.0483C2.79287 14.3789 4.39876 16.7536 5.28975 18.1119C6.16866 19.4517 7.26624 20.3194 7.81352 20.7004C8.14073 20.9282 8.36832 21.3089 8.36832 21.74V23.1018H13.1318Z" fill="black"/>
</svg>
