<svg width="12" height="15" viewBox="0 0 12 15" fill="none" xmlns="http://www.w3.org/2000/svg">
<path opacity="0.5" d="M10.9091 13.9286H7.5368C8.10418 13.4319 8.63926 12.9007 9.13889 12.3381C11.0106 10.224 12 7.9953 12 5.89286C12 4.32997 11.3679 2.8311 10.2426 1.72598C9.11742 0.620853 7.5913 0 6 0C4.4087 0 2.88258 0.620853 1.75736 1.72598C0.632141 2.8311 0 4.32997 0 5.89286C0 7.9953 0.989369 10.224 2.86111 12.3381C3.36074 12.9007 3.89582 13.4319 4.4632 13.9286H1.09091C0.946245 13.9286 0.807507 13.985 0.705215 14.0855C0.602922 14.1859 0.545455 14.3222 0.545455 14.4643C0.545455 14.6064 0.602922 14.7426 0.705215 14.8431C0.807507 14.9436 0.946245 15 1.09091 15H10.9091C11.0538 15 11.1925 14.9436 11.2948 14.8431C11.3971 14.7426 11.4545 14.6064 11.4545 14.4643C11.4545 14.3222 11.3971 14.1859 11.2948 14.0855C11.1925 13.985 11.0538 13.9286 10.9091 13.9286ZM6.00002 3.75C6.43154 3.75 6.85337 3.87568 7.21217 4.11114C7.57097 4.3466 7.85062 4.68126 8.01575 5.07282C8.18089 5.46438 8.2241 5.89523 8.13991 6.31091C8.05573 6.72658 7.84793 7.1084 7.54279 7.40809C7.23766 7.70777 6.8489 7.91186 6.42567 7.99454C6.00244 8.07722 5.56375 8.03479 5.16507 7.8726C4.7664 7.71041 4.42564 7.43576 4.1859 7.08336C3.94616 6.73097 3.8182 6.31667 3.8182 5.89286C3.8182 5.61145 3.87463 5.3328 3.98427 5.07282C4.09392 4.81283 4.25463 4.57661 4.45723 4.37762C4.65983 4.17864 4.90036 4.0208 5.16507 3.91311C5.42978 3.80542 5.7135 3.75 6.00002 3.75V3.75Z" fill="#2E162B"/>
</svg>
